<?xml version="1.0" encoding="UTF-8"?>
<svg width="36px" height="36px" viewBox="0 0 36 36" version="1.1" xmlns="http://www.w3.org/2000/svg" xmlns:xlink="http://www.w3.org/1999/xlink">
    <title>编组 4</title>
    <g id="新版UI_小程序" stroke="none" stroke-width="1" fill="none" fill-rule="evenodd">
        <g id="教务网个人界面" transform="translate(-40.000000, -274.000000)">
            <g id="校历备份-2" transform="translate(16.000000, 250.000000)">
                <g id="编组-4" transform="translate(24.000000, 24.000000)">
                    <rect id="矩形备份-4" fill="#FFC533" x="0" y="0" width="36" height="36" rx="18"></rect>
                    <path d="M18.3619658,12.4348099 C13.9740823,12.4348099 10.4912233,15.8433956 10.4912233,20.1352782 C10.4912233,24.4271609 13.9745257,27.8368552 18.3619658,27.8368552 C22.7494059,27.8368552 26.2327082,24.4280477 26.2327082,20.1352782 C26.2327082,15.8425088 22.7491841,12.4348099 18.3619658,12.4348099 Z M22.3336976,19.7805406 L20.785711,21.296379 L21.173262,23.4427638 C21.3016327,24.199907 20.9143035,24.4519925 20.2697894,24.0739751 L18.3342519,23.0638596 L16.3989361,24.0739751 C15.7533135,24.4508839 15.3668711,24.0739751 15.4954636,23.4427638 L15.8819059,21.296379 L14.3339193,19.7812057 C13.8179977,19.2761479 13.9465901,18.7708684 14.7214703,18.6449365 L16.7853785,18.3919642 L17.688851,16.4983301 C17.9469227,15.8664536 18.4628443,15.8664536 18.8503952,16.4983301 L19.7536461,18.3919642 L21.9472553,18.6440497 C22.7212486,18.8972437 22.9793202,19.2754828 22.3336976,19.7805406 Z M26.2327082,8.90007053 C26.3621875,8.77391694 26.3621875,8.64709822 26.3621875,8.64709822 C26.3621875,8.39501275 26.1041158,8.14270557 25.8462659,8.14270557 L20.9420173,8.14270557 C20.6839457,8.14270557 20.4260957,8.26885916 20.4260957,8.52094463 L18.8778874,11.2985407 C18.8778874,11.2985407 22.1033398,11.4246943 24.0388774,13.3187719 L26.2327082,8.90007053 Z M17.8460442,11.2985407 L16.2971707,8.3941259 C16.2971707,8.14181872 16.0390991,8.015 15.7810274,8.015 L11.0067015,8.015 C10.6200375,8.015 10.3621875,8.26797231 10.3621875,8.52005778 C10.3621875,8.64621137 10.3621875,8.7730301 10.4907799,8.7730301 L12.6841674,13.1910663 C14.6194832,11.5504045 17.8460442,11.2976539 17.8460442,11.2976539 L17.8460442,11.2985407 Z" id="形状" fill="#FFFFFF" fill-rule="nonzero"></path>
                </g>
            </g>
        </g>
    </g>
</svg>