<?xml version="1.0" encoding="UTF-8"?>
<svg width="24px" height="24px" viewBox="0 0 24 24" version="1.1" xmlns="http://www.w3.org/2000/svg" xmlns:xlink="http://www.w3.org/1999/xlink">
    <title>校园ICON</title>
    <g id="课表" stroke="none" stroke-width="1" fill="none" fill-rule="evenodd">
        <g id="校园ICON">
            <rect id="矩形" x="0" y="0" width="24" height="24"></rect>
            <path d="M17.6317084,11.2915196 C17.3482401,11.2915196 17.1184453,11.0193984 17.1184453,10.6837196 L17.1184453,7.30219618 C17.1187601,7.17314039 17.1328532,6.59447096 16.7433125,6.11597369 C16.4362211,5.73875408 15.0799533,4.47255587 12.6745093,2.31737904 L12.6743645,2.31754214 C12.2885421,1.9750982 11.7055429,1.98234587 11.3283528,2.33427534 C9.03846175,4.47746267 7.73106932,5.71912592 7.40928477,6.0625975 C7.09610295,6.39688657 6.99780559,6.98920333 6.99780559,7.27007672 L6.99779986,10.6971503 C6.99779986,11.0329513 6.76810755,11.3049502 6.4845368,11.3049502 L3.24831624,11.3049502 C2.40407567,11.3104367 1.72039325,12.1185497 1.71428571,13.1182761 L1.71428571,20.4588746 C1.71428571,21.4679569 2.40469322,22.2857186 3.25682332,22.2857186 L9.02817745,22.2857186 C9.59511121,22.2874871 10.0559691,21.7447501 10.0575365,21.0733939 L10.0575404,19.1458911 C10.0575402,17.8755041 10.9272081,16.845654 12,16.845654 C13.1354349,16.8456539 14.0558878,17.9356433 14.0558878,19.2802118 L14.0558878,21.0700316 C14.0558878,21.7416338 14.5152725,22.2857186 15.0824139,22.2857186 L20.7430895,22.2857186 C21.5950589,22.2857186 22.2857143,21.4677657 22.2857143,20.4588736 L22.2857143,13.1182751 C22.2857143,12.109383 21.5950589,11.2915172 20.7430894,11.2915172 L17.6317084,11.2915196 Z" id="路径备份" fill="#CCCCCC" fill-rule="nonzero"></path>
        </g>
    </g>
</svg>