<?xml version="1.0" encoding="UTF-8"?>
<svg width="36px" height="36px" viewBox="0 0 36 36" version="1.1" xmlns="http://www.w3.org/2000/svg" xmlns:xlink="http://www.w3.org/1999/xlink">
    <title>编组 5</title>
    <g id="新版UI_小程序" stroke="none" stroke-width="1" fill="none" fill-rule="evenodd">
        <g id="教务网个人界面" transform="translate(-219.000000, -274.000000)">
            <g id="校历备份-3" transform="translate(195.000000, 250.000000)">
                <g id="编组-5" transform="translate(24.000000, 24.000000)">
                    <rect id="矩形备份-4" fill="#9177FE" x="0" y="0" width="36" height="36" rx="18"></rect>
                    <path d="M26.5581631,10.4377693 C26.4607281,10.3418712 26.3177394,10.3087252 26.1880491,10.3519737 L10.9153042,15.4428887 C10.7805728,15.4878012 10.6843173,15.607041 10.6688322,15.7482143 C10.6533471,15.8893876 10.7214664,16.0266574 10.8432587,16.0997076 L14.3030354,18.1756191 L14.3030354,23.0606247 C14.3030116,23.2077203 14.3916092,23.3403425 14.5275065,23.3966367 C14.6634037,23.452931 14.8198311,23.4218083 14.9238316,23.3177841 L17.5757664,20.6658492 L21.6822484,24.7723312 C21.7721053,24.8621589 21.9023308,24.8985725 22.0257475,24.8683802 C22.1491642,24.8381879 22.2478725,24.7457687 22.2861128,24.6246038 L26.6497541,10.8064061 C26.6909277,10.676079 26.6555452,10.533671 26.5581631,10.4377693 L26.5581631,10.4377693 Z" id="路径" fill="#FFFFFF" fill-rule="nonzero"></path>
                </g>
            </g>
        </g>
    </g>
</svg>