<?xml version="1.0" encoding="UTF-8"?>
<svg width="36px" height="36px" viewBox="0 0 36 36" version="1.1" xmlns="http://www.w3.org/2000/svg" xmlns:xlink="http://www.w3.org/1999/xlink">
    <title>编组 2</title>
    <g id="新版UI_小程序" stroke="none" stroke-width="1" fill="none" fill-rule="evenodd">
        <g id="教务网个人界面" transform="translate(-40.000000, -128.000000)">
            <g id="校历" transform="translate(16.000000, 104.000000)">
                <g id="编组-2" transform="translate(24.000000, 24.000000)">
                    <rect id="矩形备份-4" fill="#4FD171" x="0" y="0" width="36" height="36" rx="18"></rect>
                    <path d="M17.6005306,11.4232906 L17.6524886,11.4144006 C18.2734844,11.32293 18.894364,11.673683 19.117446,12.2824669 L23.1182349,23.2004938 C23.3731859,23.8962469 23.0120197,24.6655524 22.3115478,24.9187858 C21.6110759,25.1720192 20.8365527,24.8132861 20.5816017,24.1175331 L19.7298058,21.7930608 C19.6871663,21.7976472 19.6438579,21.8 19.6,21.8 L15.6,21.8 C15.5561421,21.8 15.5128337,21.7976472 15.4701942,21.7930608 L14.6183983,24.1175331 C14.3634473,24.8132861 13.5889241,25.1720192 12.8884522,24.9187858 C12.1879803,24.6655524 11.8268141,23.8962469 12.0817651,23.2004938 L16.082554,12.2824669 C16.3119858,11.6563546 16.9621834,11.3031714 17.6005306,11.4232906 Z M17.6,15.981 L16.347,19.4 L18.853,19.4 L17.6,15.981 Z M24.8,9 C25.2418278,9 25.6,9.3581722 25.6,9.8 L25.6,11.399 L27.2,11.4 C27.6418278,11.4 28,11.7581722 28,12.2 C28,12.6418278 27.6418278,13 27.2,13 L25.6,12.999 L25.6,14.6 C25.6,15.0418278 25.2418278,15.4 24.8,15.4 C24.3581722,15.4 24,15.0418278 24,14.6 L24,12.999 L22.4,13 C21.9581722,13 21.6,12.6418278 21.6,12.2 C21.6,11.7581722 21.9581722,11.4 22.4,11.4 L24,11.399 L24,9.8 C24,9.3581722 24.3581722,9 24.8,9 Z" id="形状结合" fill="#FFFFFF"></path>
                </g>
            </g>
        </g>
    </g>
</svg>