<svg t="1694171225478" class="icon" viewBox="0 0 1024 1024" version="1.1" xmlns="http://www.w3.org/2000/svg" p-id="14395" width="16" height="16"><path d="M132.266667 225.821013" p-id="14396" fill="#ffffff"></path><path d="M867.679573 746.207573c-29.673813-190.641493-176.0256-335.433387-352.1024-335.433386v-145.95584c0-7.3728-3.106133-13.702827-8.533333-17.389227-5.4272-3.6864-11.639467-3.6864-17.066667 0l-182.6816 124.076373-182.679893 124.074667c-5.4272 3.6864-8.533333 10.01472-8.533333 17.38752 0 7.3728 3.106133 13.70112 8.533333 17.38752l182.679893 124.074667 182.6816 124.076373c5.4272 3.6864 11.639467 3.6864 17.066667 0 5.4272-3.6864 8.533333-10.016427 8.533333-17.389227v-144.377173c7.35744-0.436907 14.767787-0.667307 22.2208-0.667307 119.502507 0 227.28704 57.084587 303.44192 148.59264 5.08928 6.114987 12.40576 7.304533 18.546347 3.012267 6.135467-4.29056 9.250133-12.755627 7.893333-21.469867z" p-id="14397" fill="#ffffff"></path></svg>