<?xml version="1.0" encoding="UTF-8"?>
<svg width="17px" height="17px" viewBox="0 0 17 17" version="1.1" xmlns="http://www.w3.org/2000/svg" xmlns:xlink="http://www.w3.org/1999/xlink">
    <title>时间</title>
    <g id="课表" stroke="none" stroke-width="1" fill="none" fill-rule="evenodd">
        <g id="时间" transform="translate(0.666672, 0.666672)" fill="#444444" fill-rule="nonzero">
            <path d="M9.00000879,8.10000791 L11.4000111,10.5000103 L9.99999121,11.9000038 L7.09999912,9.00000879 L6.99999121,9.00000879 L6.99999121,3.99998828 L9.00000879,3.99998828 L9.00000879,8.10000791 Z M8,16 C3.60000352,16 0,12.3999965 0,8 C0,3.60000352 3.60000352,0 8,0 C12.3999965,0 16,3.60000352 16,8 C16,12.3999965 12.3999965,16 8,16 Z M7.99999414,14.0000059 C11.3000032,14.0000059 14.0000059,11.3000032 14.0000059,7.99999414 C14.0000059,4.69999678 11.3000032,1.99999414 7.99999414,1.99999414 C4.69999678,1.99999414 1.99999414,4.69999678 1.99999414,7.99999414 C1.99999414,11.3000032 4.69999678,14.0000059 7.99999414,14.0000059 Z" id="形状"></path>
        </g>
    </g>
</svg>